<svg xmlns="http://www.w3.org/2000/svg" viewBox="0 0 15 15" shape-rendering="crispEdges" aria-label="Kraken">
  <rect x="0" y="0" width="15" height="15" rx="3.4" fill="#1E293B"/>
  <g fill="rgba(255,255,255,0.94)">
    <rect x="5" y="3" width="1.02" height="1.02"/>
    <rect x="6" y="3" width="1.02" height="1.02"/>
    <rect x="7" y="3" width="1.02" height="1.02"/>
    <rect x="8" y="3" width="1.02" height="1.02"/>
    <rect x="9" y="3" width="1.02" height="1.02"/>
    <rect x="4" y="4" width="1.02" height="1.02"/>
    <rect x="5" y="4" width="1.02" height="1.02"/>
    <rect x="6" y="4" width="1.02" height="1.02"/>
    <rect x="7" y="4" width="1.02" height="1.02"/>
    <rect x="8" y="4" width="1.02" height="1.02"/>
    <rect x="9" y="4" width="1.02" height="1.02"/>
    <rect x="10" y="4" width="1.02" height="1.02"/>
    <rect x="3" y="5" width="1.02" height="1.02"/>
    <rect x="4" y="5" width="1.02" height="1.02"/>
    <rect x="5" y="5" width="1.02" height="1.02"/>
    <rect x="6" y="5" width="1.02" height="1.02"/>
    <rect x="7" y="5" width="1.02" height="1.02"/>
    <rect x="8" y="5" width="1.02" height="1.02"/>
    <rect x="9" y="5" width="1.02" height="1.02"/>
    <rect x="10" y="5" width="1.02" height="1.02"/>
    <rect x="11" y="5" width="1.02" height="1.02"/>
    <rect x="3" y="6" width="1.02" height="1.02"/>
    <rect x="4" y="6" width="1.02" height="1.02"/>
    <rect x="6" y="6" width="1.02" height="1.02"/>
    <rect x="7" y="6" width="1.02" height="1.02"/>
    <rect x="8" y="6" width="1.02" height="1.02"/>
    <rect x="10" y="6" width="1.02" height="1.02"/>
    <rect x="11" y="6" width="1.02" height="1.02"/>
    <rect x="3" y="7" width="1.02" height="1.02"/>
    <rect x="4" y="7" width="1.02" height="1.02"/>
    <rect x="5" y="7" width="1.02" height="1.02"/>
    <rect x="6" y="7" width="1.02" height="1.02"/>
    <rect x="7" y="7" width="1.02" height="1.02"/>
    <rect x="8" y="7" width="1.02" height="1.02"/>
    <rect x="9" y="7" width="1.02" height="1.02"/>
    <rect x="10" y="7" width="1.02" height="1.02"/>
    <rect x="11" y="7" width="1.02" height="1.02"/>
    <rect x="3" y="8" width="1.02" height="1.02"/>
    <rect x="4" y="8" width="1.02" height="1.02"/>
    <rect x="5" y="8" width="1.02" height="1.02"/>
    <rect x="6" y="8" width="1.02" height="1.02"/>
    <rect x="7" y="8" width="1.02" height="1.02"/>
    <rect x="8" y="8" width="1.02" height="1.02"/>
    <rect x="9" y="8" width="1.02" height="1.02"/>
    <rect x="10" y="8" width="1.02" height="1.02"/>
    <rect x="11" y="8" width="1.02" height="1.02"/>
    <rect x="4" y="9" width="1.02" height="1.02"/>
    <rect x="6" y="9" width="1.02" height="1.02"/>
    <rect x="8" y="9" width="1.02" height="1.02"/>
    <rect x="10" y="9" width="1.02" height="1.02"/>
    <rect x="4" y="10" width="1.02" height="1.02"/>
    <rect x="6" y="10" width="1.02" height="1.02"/>
    <rect x="8" y="10" width="1.02" height="1.02"/>
    <rect x="10" y="10" width="1.02" height="1.02"/>
    <rect x="3" y="11" width="1.02" height="1.02"/>
    <rect x="6" y="11" width="1.02" height="1.02"/>
    <rect x="8" y="11" width="1.02" height="1.02"/>
    <rect x="11" y="11" width="1.02" height="1.02"/>
  </g>
</svg>
